<svg width="14" height="14" viewBox="0 0 14 14" fill="none" xmlns="http://www.w3.org/2000/svg">
<path d="M7.00038 0.753418C5.34369 0.753418 3.75489 1.41154 2.58346 2.58297C1.41203 3.7544 0.753906 5.3432 0.753906 6.99988C0.753906 8.65657 1.41203 10.2454 2.58346 11.4168C3.75489 12.5882 5.34369 13.2463 7.00038 13.2463C8.65706 13.2463 10.2459 12.5882 11.4173 11.4168C12.5887 10.2454 13.2469 8.65657 13.2469 6.99988C13.245 5.34381 12.5863 3.756 11.4152 2.58503C10.2442 1.41406 8.65638 0.755292 7.00038 0.753418ZM7.00038 12.4656V12.4655C5.55073 12.4655 4.1606 11.8898 3.13546 10.8647C2.11036 9.83965 1.53457 8.44957 1.53457 6.99975C1.53457 5.54992 2.11036 4.15998 3.13546 3.13484C4.16047 2.10974 5.55055 1.53395 7.00038 1.53395C8.45021 1.53395 9.84015 2.10974 10.8653 3.13484C11.8904 4.15984 12.4662 5.54992 12.4662 6.99975C12.4646 8.44884 11.8882 9.83814 10.8635 10.8628C9.83887 11.8876 8.44957 12.4639 7.00042 12.4655L7.00038 12.4656ZM7.44127 3.03433L7.39109 7.00507V7.00498C7.38957 7.12293 7.33484 7.23392 7.24216 7.30685L4.81016 9.21782C4.72891 9.28363 4.62463 9.31407 4.52079 9.30238C4.41686 9.29068 4.32204 9.23782 4.25741 9.15568C4.19285 9.07345 4.16393 8.96881 4.17714 8.86505C4.19035 8.76139 4.24455 8.66729 4.32767 8.60398L6.61241 6.80835L6.66035 3.02435H6.66026C6.6616 2.92176 6.7033 2.82372 6.77634 2.75157C6.84937 2.67943 6.94794 2.63898 7.05053 2.63898H7.05553C7.1591 2.64023 7.25794 2.68255 7.33034 2.75675C7.40266 2.83086 7.44257 2.93077 7.44124 3.03435L7.44127 3.03433Z" fill="#676565"/>
</svg>
