<svg width="8" height="13" viewBox="0 0 8 13" fill="none" xmlns="http://www.w3.org/2000/svg">
<path d="M4.00008 0.935547C1.95302 0.935547 0.288086 2.60046 0.288086 4.64755C0.288086 5.45068 0.773274 6.48693 1.08809 7.07155L3.77609 12.0635L3.776 12.0636C3.82109 12.1451 3.90689 12.1957 4.00001 12.1957C4.09314 12.1957 4.17894 12.1451 4.22403 12.0636L6.91203 7.07164C7.22684 6.487 7.71203 5.45084 7.71203 4.64764C7.71203 2.60057 6.04712 0.935636 4.00003 0.935636L4.00008 0.935547ZM4.00008 1.4475C5.77044 1.4475 7.20008 2.87715 7.20008 4.6475C7.20008 5.22019 6.75615 6.2851 6.46411 6.8275L4.00011 11.4035L1.53611 6.8275C1.24406 6.2851 0.800131 5.22019 0.800131 4.6475C0.800131 2.87715 2.22978 1.4475 4.00013 1.4475H4.00008ZM4.00008 2.7275C2.94276 2.7275 2.08009 3.59018 2.08009 4.6475C2.08009 5.70483 2.94276 6.5675 4.00008 6.5675C5.05741 6.5675 5.92008 5.70483 5.92008 4.6475C5.92008 3.59018 5.05741 2.7275 4.00008 2.7275ZM4.00008 3.23946C4.7807 3.23946 5.40813 3.86677 5.40813 4.6475C5.40813 5.42812 4.78082 6.05555 4.00008 6.05555C3.21947 6.05555 2.59204 5.42823 2.59204 4.6475C2.59204 3.86688 3.21935 3.23946 4.00008 3.23946Z" fill="#676565"/>
</svg>
