<svg width="25" height="25" viewBox="0 0 25 25" fill="none" xmlns="http://www.w3.org/2000/svg">
<path d="M12 21.8202C6.75315 21.8202 2.5 17.567 2.5 12.3202C2.5 7.07334 6.75315 2.82019 12 2.82019C17.2469 2.82019 21.5 7.07334 21.5 12.3202C21.5 17.567 17.2469 21.8202 12 21.8202ZM12 19.9202C14.0156 19.9202 15.9487 19.1195 17.374 17.6942C18.7993 16.2689 19.6 14.3358 19.6 12.3202C19.6 10.3045 18.7993 8.37146 17.374 6.94618C15.9487 5.5209 14.0156 4.72019 12 4.72019C9.98435 4.72019 8.05126 5.5209 6.62599 6.94618C5.20071 8.37146 4.4 10.3045 4.4 12.3202C4.4 14.3358 5.20071 16.2689 6.62599 17.6942C8.05126 19.1195 9.98435 19.9202 12 19.9202ZM11.05 15.1702H12.95V17.0702H11.05V15.1702ZM11.05 7.57019H12.95V13.2702H11.05V7.57019Z" fill="#E00000"/>
</svg>
